# xmcd
#
# Track frame offsets:
#	150
#	14135
#	30225
#	45885
#	61808
#	80970
#	100345
#	116078
#
# Disc length: 1885 seconds
#
# Revision: 2
# Processed by: cddbd v1.5.2PL0 Copyright (c) Steve Scherf et al.
# Submitted via: EasyCDDAExtractor 15.3.0.1
#
DISCID=60075b08
DTITLE=Yolandita Monge - Brillantes
DYEAR=1994
DGENRE=Latin
TTITLE0=Aceptame Como Soy
TTITLE1=La Distancia
TTITLE2=Contra La Pared
TTITLE3=Como Lo Hago Yo
TTITLE4=Quitame Ese Hombre Del Corazon
TTITLE5=El Amor
TTITLE6=Luz De Luna
TTITLE7=Laberinto De Amor
EXTD=Brillantes\nYolandita Monge's Best Hits\nDJ Math
EXTT0=
EXTT1=
EXTT2=
EXTT3=
EXTT4=
EXTT5=
EXTT6=
EXTT7=
PLAYORDER=
